<svg class="qr" viewBox="0 0 37 37" xmlns="http://www.w3.org/2000/svg" shape-rendering="crispEdges"><path fill="#14181f" d="M0 0h7v1H0zM8 0h5v1H8zM14 0h1v1H14zM16 0h4v1H16zM21 0h1v1H21zM23 0h1v1H23zM25 0h2v1H25zM30 0h7v1H30zM0 1h1v1H0zM6 1h1v1H6zM8 1h3v1H8zM13 1h1v1H13zM18 1h1v1H18zM20 1h2v1H20zM25 1h2v1H25zM28 1h1v1H28zM30 1h1v1H30zM36 1h1v1H36zM0 2h1v1H0zM2 2h3v1H2zM6 2h1v1H6zM8 2h1v1H8zM10 2h1v1H10zM13 2h2v1H13zM16 2h1v1H16zM20 2h2v1H20zM25 2h4v1H25zM30 2h1v1H30zM32 2h3v1H32zM36 2h1v1H36zM0 3h1v1H0zM2 3h3v1H2zM6 3h1v1H6zM9 3h1v1H9zM11 3h1v1H11zM13 3h1v1H13zM15 3h3v1H15zM19 3h4v1H19zM25 3h1v1H25zM28 3h1v1H28zM30 3h1v1H30zM32 3h3v1H32zM36 3h1v1H36zM0 4h1v1H0zM2 4h3v1H2zM6 4h1v1H6zM8 4h1v1H8zM15 4h5v1H15zM21 4h1v1H21zM28 4h1v1H28zM30 4h1v1H30zM32 4h3v1H32zM36 4h1v1H36zM0 5h1v1H0zM6 5h1v1H6zM10 5h1v1H10zM13 5h3v1H13zM17 5h2v1H17zM20 5h1v1H20zM22 5h5v1H22zM28 5h1v1H28zM30 5h1v1H30zM36 5h1v1H36zM0 6h7v1H0zM8 6h1v1H8zM10 6h1v1H10zM12 6h1v1H12zM14 6h1v1H14zM16 6h1v1H16zM18 6h1v1H18zM20 6h1v1H20zM22 6h1v1H22zM24 6h1v1H24zM26 6h1v1H26zM28 6h1v1H28zM30 6h7v1H30zM15 7h1v1H15zM23 7h1v1H23zM25 7h1v1H25zM28 7h1v1H28zM0 8h1v1H0zM3 8h6v1H3zM10 8h1v1H10zM12 8h2v1H12zM16 8h1v1H16zM18 8h1v1H18zM20 8h2v1H20zM23 8h1v1H23zM28 8h2v1H28zM32 8h1v1H32zM34 8h3v1H34zM0 9h3v1H0zM7 9h1v1H7zM9 9h1v1H9zM12 9h1v1H12zM14 9h1v1H14zM20 9h3v1H20zM27 9h1v1H27zM31 9h2v1H31zM34 9h2v1H34zM1 10h6v1H1zM8 10h1v1H8zM12 10h3v1H12zM18 10h1v1H18zM22 10h6v1H22zM31 10h1v1H31zM34 10h1v1H34zM36 10h1v1H36zM1 11h2v1H1zM5 11h1v1H5zM7 11h4v1H7zM13 11h1v1H13zM15 11h1v1H15zM17 11h1v1H17zM22 11h3v1H22zM26 11h1v1H26zM29 11h8v1H29zM0 12h2v1H0zM3 12h1v1H3zM6 12h3v1H6zM10 12h2v1H10zM14 12h1v1H14zM19 12h1v1H19zM23 12h2v1H23zM27 12h2v1H27zM30 12h2v1H30zM33 12h1v1H33zM36 12h1v1H36zM0 13h4v1H0zM5 13h1v1H5zM10 13h4v1H10zM15 13h3v1H15zM20 13h1v1H20zM23 13h1v1H23zM26 13h3v1H26zM32 13h2v1H32zM36 13h1v1H36zM0 14h1v1H0zM4 14h3v1H4zM8 14h2v1H8zM11 14h1v1H11zM13 14h1v1H13zM15 14h1v1H15zM17 14h1v1H17zM19 14h1v1H19zM22 14h1v1H22zM25 14h3v1H25zM29 14h2v1H29zM32 14h5v1H32zM0 15h1v1H0zM5 15h1v1H5zM9 15h3v1H9zM13 15h1v1H13zM15 15h1v1H15zM17 15h3v1H17zM24 15h1v1H24zM27 15h2v1H27zM31 15h1v1H31zM33 15h2v1H33zM3 16h1v1H3zM5 16h2v1H5zM8 16h7v1H8zM16 16h2v1H16zM19 16h3v1H19zM23 16h1v1H23zM25 16h4v1H25zM30 16h1v1H30zM34 16h1v1H34zM1 17h5v1H1zM7 17h3v1H7zM11 17h3v1H11zM16 17h3v1H16zM20 17h1v1H20zM22 17h1v1H22zM24 17h4v1H24zM29 17h1v1H29zM31 17h1v1H31zM33 17h1v1H33zM0 18h1v1H0zM3 18h2v1H3zM6 18h1v1H6zM8 18h1v1H8zM12 18h2v1H12zM15 18h1v1H15zM17 18h1v1H17zM20 18h1v1H20zM22 18h2v1H22zM25 18h5v1H25zM31 18h1v1H31zM33 18h2v1H33zM36 18h1v1H36zM0 19h2v1H0zM3 19h1v1H3zM5 19h1v1H5zM7 19h1v1H7zM9 19h4v1H9zM18 19h1v1H18zM22 19h1v1H22zM24 19h10v1H24zM36 19h1v1H36zM1 20h1v1H1zM3 20h2v1H3zM6 20h2v1H6zM12 20h6v1H12zM24 20h1v1H24zM26 20h8v1H26zM0 21h1v1H0zM2 21h1v1H2zM4 21h1v1H4zM10 21h5v1H10zM18 21h2v1H18zM21 21h3v1H21zM26 21h2v1H26zM32 21h1v1H32zM34 21h1v1H34zM1 22h3v1H1zM6 22h4v1H6zM11 22h1v1H11zM15 22h4v1H15zM22 22h6v1H22zM29 22h1v1H29zM31 22h1v1H31zM33 22h1v1H33zM36 22h1v1H36zM0 23h1v1H0zM5 23h1v1H5zM9 23h1v1H9zM13 23h1v1H13zM17 23h1v1H17zM20 23h4v1H20zM27 23h1v1H27zM30 23h5v1H30zM36 23h1v1H36zM0 24h1v1H0zM2 24h3v1H2zM6 24h4v1H6zM12 24h3v1H12zM16 24h4v1H16zM21 24h1v1H21zM25 24h1v1H25zM28 24h1v1H28zM30 24h1v1H30zM36 24h1v1H36zM0 25h2v1H0zM5 25h1v1H5zM8 25h1v1H8zM11 25h1v1H11zM16 25h2v1H16zM19 25h3v1H19zM26 25h2v1H26zM32 25h1v1H32zM0 26h2v1H0zM3 26h1v1H3zM6 26h2v1H6zM9 26h1v1H9zM11 26h2v1H11zM16 26h1v1H16zM18 26h3v1H18zM24 26h1v1H24zM26 26h2v1H26zM29 26h1v1H29zM31 26h1v1H31zM34 26h3v1H34zM0 27h1v1H0zM4 27h1v1H4zM8 27h1v1H8zM10 27h1v1H10zM13 27h3v1H13zM20 27h1v1H20zM23 27h2v1H23zM32 27h5v1H32zM0 28h1v1H0zM3 28h2v1H3zM6 28h4v1H6zM12 28h1v1H12zM14 28h1v1H14zM16 28h1v1H16zM20 28h1v1H20zM22 28h4v1H22zM27 28h8v1H27zM36 28h1v1H36zM8 29h1v1H8zM11 29h3v1H11zM15 29h2v1H15zM18 29h3v1H18zM22 29h1v1H22zM25 29h1v1H25zM28 29h1v1H28zM32 29h1v1H32zM34 29h2v1H34zM0 30h7v1H0zM8 30h2v1H8zM11 30h2v1H11zM14 30h3v1H14zM19 30h1v1H19zM21 30h3v1H21zM26 30h1v1H26zM28 30h1v1H28zM30 30h1v1H30zM32 30h1v1H32zM36 30h1v1H36zM0 31h1v1H0zM6 31h1v1H6zM8 31h2v1H8zM11 31h1v1H11zM15 31h4v1H15zM22 31h5v1H22zM28 31h1v1H28zM32 31h1v1H32zM36 31h1v1H36zM0 32h1v1H0zM2 32h3v1H2zM6 32h1v1H6zM8 32h3v1H8zM13 32h1v1H13zM21 32h2v1H21zM25 32h8v1H25zM36 32h1v1H36zM0 33h1v1H0zM2 33h3v1H2zM6 33h1v1H6zM8 33h3v1H8zM16 33h3v1H16zM21 33h1v1H21zM27 33h1v1H27zM29 33h2v1H29zM33 33h1v1H33zM36 33h1v1H36zM0 34h1v1H0zM2 34h3v1H2zM6 34h1v1H6zM11 34h2v1H11zM15 34h2v1H15zM19 34h5v1H19zM25 34h1v1H25zM27 34h3v1H27zM32 34h3v1H32zM36 34h1v1H36zM0 35h1v1H0zM6 35h1v1H6zM11 35h1v1H11zM13 35h2v1H13zM16 35h2v1H16zM19 35h2v1H19zM23 35h2v1H23zM32 35h5v1H32zM0 36h7v1H0zM8 36h5v1H8zM14 36h3v1H14zM20 36h1v1H20zM22 36h1v1H22zM24 36h1v1H24zM28 36h4v1H28zM34 36h1v1H34zM36 36h1v1H36z"/></svg>